<?xml version="1.0" standalone="no"?>
<!DOCTYPE svg PUBLIC "-//W3C//DTD SVG 20010904//EN"
 "http://www.w3.org/TR/2001/REC-SVG-20010904/DTD/svg10.dtd">
<svg version="1.0" xmlns="http://www.w3.org/2000/svg"
 width="517.000000pt" height="539.000000pt" viewBox="0 0 517.000000 539.000000"
 preserveAspectRatio="xMidYMid meet">

<g transform="translate(0.000000,539.000000) scale(0.100000,-0.100000)"
fill="#000000" stroke="none">
<path d="M3245 5006 c-143 -51 -211 -84 -247 -123 -30 -31 -58 -91 -58 -124 0
-23 0 -23 -80 6 -90 34 -256 28 -333 -11 -16 -9 -31 -14 -33 -12 -7 8 24 164
40 203 9 21 16 39 16 41 0 8 -56 -18 -74 -34 -48 -44 -75 -158 -53 -219 7 -19
5 -23 -12 -23 -31 0 -123 -37 -155 -63 -28 -23 -29 -23 -81 -5 -29 9 -99 22
-157 27 -115 11 -147 20 -195 57 l-33 25 -2 -33 c-3 -65 3 -114 23 -183 20
-66 87 -210 95 -202 2 2 -9 28 -25 58 -32 59 -51 143 -51 227 l0 54 39 -35
c22 -20 59 -41 83 -48 56 -16 65 -25 34 -33 -32 -8 -33 -20 -3 -34 21 -10 20
-11 -11 -11 -18 -1 -42 4 -54 10 -32 17 -35 1 -7 -50 23 -43 24 -50 10 -59
-14 -8 -12 -14 12 -39 31 -33 35 -53 10 -53 -15 0 -16 -2 -3 -10 13 -8 13 -14
1 -42 -26 -63 -41 -133 -36 -160 6 -28 30 -44 40 -28 4 6 12 10 19 10 11 0 11
-10 4 -47 -15 -77 9 -203 39 -203 8 0 17 9 20 20 7 28 23 25 23 -4 0 -35 46
-175 70 -214 l21 -34 -30 -34 c-66 -75 -63 -190 8 -264 47 -50 146 -96 247
-117 44 -8 81 -17 83 -19 1 -1 -4 -24 -12 -51 -9 -26 -20 -100 -27 -163 -6
-63 -20 -164 -31 -225 -26 -142 -36 -328 -20 -390 12 -48 68 -182 124 -295 17
-36 33 -68 35 -72 2 -5 -4 -8 -13 -8 -15 0 -384 115 -740 230 -49 16 -119 38
-154 49 l-64 21 -271 -172 c-333 -211 -376 -239 -376 -248 0 -7 45 -23 325
-121 94 -33 206 -73 250 -89 44 -16 184 -65 310 -110 127 -45 267 -95 313
-112 46 -16 95 -33 110 -38 15 -4 91 -31 170 -59 485 -174 536 -191 559 -190
16 0 -85 39 -257 99 -30 10 -120 42 -200 70 -145 52 -317 112 -550 194 -99 35
-639 227 -949 336 -30 11 -55 21 -57 23 -2 2 40 32 95 66 l99 62 88 -31 c49
-17 127 -44 174 -60 47 -16 177 -61 290 -100 113 -39 237 -82 275 -95 39 -13
142 -49 230 -80 88 -31 198 -69 245 -85 47 -16 177 -61 290 -100 113 -39 237
-82 275 -95 82 -28 455 -158 503 -175 17 -7 32 -17 33 -23 0 -7 3 -5 7 4 4 8
90 92 192 186 151 140 186 168 188 151 7 -42 -12 -67 -157 -203 -83 -76 -148
-141 -146 -143 5 -6 53 35 185 161 l105 99 3 -38 c4 -38 1 -42 -95 -131 -54
-51 -95 -93 -90 -93 4 0 38 29 75 64 37 35 79 74 94 87 26 23 27 29 30 129 l3
104 -235 76 c-129 41 -241 78 -249 81 -11 4 -8 11 12 32 32 31 32 32 11 132
-9 42 -13 79 -9 83 3 3 26 11 50 17 l43 11 23 -47 c31 -68 63 -80 197 -81 159
-1 303 44 458 142 59 37 69 40 129 39 36 -1 69 2 73 5 4 4 9 42 10 85 4 71 2
80 -21 107 -22 26 -32 29 -87 31 -59 1 -63 3 -97 43 -45 53 -100 87 -163 103
l-50 13 -4 160 c-2 87 -9 184 -16 214 -29 126 -109 234 -222 298 -92 53 -148
111 -202 208 -27 49 -59 103 -72 120 -22 31 -22 31 -3 60 10 16 19 37 19 47 0
23 12 22 28 -3 28 -46 65 -10 83 81 10 52 13 57 29 46 57 -35 66 81 15 188
-16 33 -31 64 -33 68 -2 5 21 -6 52 -23 61 -35 86 -34 86 2 0 32 -43 121 -86
179 l-36 49 31 0 c19 0 34 6 37 15 8 19 -28 76 -72 115 -34 29 -35 32 -18 44
17 13 17 15 -1 57 -23 50 -159 193 -222 233 -40 24 -42 28 -32 53 23 60 29
144 23 296 -5 105 -10 157 -18 156 -6 0 -65 -19 -131 -43z m133 -144 c3 -161
1 -184 -18 -243 -21 -62 -44 -99 -62 -99 -14 0 -9 48 8 65 15 15 15 17 -5 22
-26 7 -29 48 -5 81 15 22 14 22 -24 22 -38 0 -39 1 -40 39 -2 44 -16 86 -31
96 -6 3 -11 -1 -11 -9 0 -21 -56 -83 -66 -73 -5 4 -3 17 4 27 18 30 -14 26
-62 -6 l-39 -26 19 32 c44 76 108 132 219 190 61 32 110 58 110 59 0 0 1 -79
3 -177z m-311 18 c-63 -70 -104 -209 -78 -259 19 -34 31 -24 31 24 0 55 21
110 48 124 30 16 32 14 32 -23 0 -19 5 -38 11 -41 7 -5 3 -12 -9 -21 -23 -16
-38 -82 -23 -97 8 -8 11 -4 11 14 0 24 25 69 38 69 4 0 18 -20 31 -44 13 -25
32 -53 42 -62 18 -16 19 -16 19 3 0 22 18 33 51 33 16 0 17 -3 7 -25 -11 -25
1 -73 28 -105 17 -21 69 -211 96 -355 18 -98 22 -156 23 -315 0 -248 -7 -300
-47 -345 -28 -32 -31 -34 -56 -21 -79 39 -155 50 -337 50 -209 -1 -326 -21
-449 -78 -86 -39 -163 -110 -173 -157 -5 -29 -8 -31 -39 -26 -58 10 -153 59
-188 97 -65 72 -71 165 -16 246 l29 41 -35 93 c-18 51 -34 98 -34 104 0 6 57
29 125 50 123 39 161 60 88 49 -21 -3 -79 -21 -130 -39 l-92 -33 -14 42 -14
42 -13 -27 c-7 -16 -17 -28 -21 -28 -18 0 -32 139 -21 207 5 29 7 55 5 57 -3
2 -13 -4 -24 -15 -31 -31 -49 -24 -49 19 0 43 29 136 55 175 15 23 15 28 1 56
-15 29 -15 30 1 24 10 -3 26 -13 36 -21 9 -8 20 -12 24 -9 9 10 -27 47 -46 47
-22 1 28 39 52 40 9 0 17 5 17 10 0 15 -43 12 -68 -6 -25 -17 -43 -9 -63 28
-9 17 -5 17 51 11 67 -7 76 3 34 36 l-25 20 34 6 c37 7 114 -20 149 -52 27
-24 22 0 -5 25 -25 24 -135 72 -164 72 -10 0 -40 12 -68 25 -27 14 -41 23 -30
19 11 -3 49 -14 85 -24 36 -9 102 -36 147 -58 110 -56 126 -55 185 12 30 34
68 64 101 80 65 30 225 54 390 58 106 3 117 1 117 -14 0 -10 4 -18 9 -18 4 0
11 27 14 60 7 80 33 128 91 168 68 45 75 40 23 -18z m-611 -152 c-6 -4 -13 -3
-16 3 -12 19 -11 101 2 137 13 37 13 36 19 -48 3 -55 2 -87 -5 -92z m739 -40
c-8 -5 -15 -13 -15 -18 0 -5 18 0 40 11 23 12 43 20 45 17 10 -10 -9 -77 -24
-82 -9 -3 -21 -8 -27 -11 -15 -8 -58 61 -50 80 3 10 -1 15 -13 15 -10 0 -21 9
-24 21 -4 16 2 25 29 41 19 11 37 32 42 47 5 19 8 8 10 -43 2 -55 0 -72 -13
-78z m-1384 -29 c-9 -23 -10 -22 -10 11 -1 23 2 31 9 24 7 -7 7 -19 1 -35z
m1337 -1209 c102 -11 162 -26 162 -40 0 -9 -120 -68 -230 -112 -176 -71 -405
-114 -565 -105 -114 6 -135 12 -135 37 0 29 75 105 137 137 145 77 390 109
631 83z m199 -162 c30 -35 59 -88 76 -143 15 -48 20 -112 44 -677 8 -180 -5
-268 -58 -400 -22 -53 -39 -105 -39 -116 0 -17 -9 -21 -50 -27 -56 -8 -122 1
-161 21 -24 12 -26 20 -39 129 -11 95 -11 155 -1 333 7 119 16 242 21 272 5
30 9 109 9 175 1 110 7 168 27 265 7 32 6 34 -9 21 -9 -7 -17 -20 -17 -27 0
-8 -3 -14 -7 -14 -11 1 -57 40 -52 44 2 2 38 27 79 54 41 28 88 64 104 81 35
37 46 38 73 9z m-285 -168 c75 -34 80 -41 68 -96 -6 -27 -11 -78 -10 -114 1
-36 2 -91 1 -122 l-1 -58 -62 0 c-154 0 -274 39 -302 97 -63 131 2 280 137
314 44 11 119 2 169 -21z m525 -14 c4 -7 39 -39 76 -71 122 -104 187 -222 277
-500 40 -125 41 -132 31 -195 -6 -36 -10 -87 -10 -115 l1 -50 11 35 c6 19 11
36 12 37 0 1 39 -10 85 -25 108 -35 130 -64 155 -204 l7 -38 -88 -41 c-186
-88 -297 -115 -427 -107 -115 7 -140 32 -173 168 -19 78 -17 113 11 218 15 57
25 120 25 163 0 53 3 69 14 69 20 0 54 46 67 91 16 52 -5 105 -72 183 -41 48
-50 65 -45 85 23 102 28 147 23 224 -4 82 2 105 20 73z m-991 -51 c33 -3 74
-8 92 -11 l32 -5 -6 -62 c-3 -35 -2 -80 4 -102 10 -34 9 -37 -2 -22 -31 41
-32 34 -6 -213 18 -168 16 -430 -3 -540 -9 -52 -17 -98 -17 -102 0 -9 -115
-10 -146 -2 -25 7 -120 200 -155 314 -20 66 -21 87 -15 200 3 70 12 163 20
206 15 87 32 207 42 299 3 33 8 63 10 67 2 3 24 0 48 -7 24 -7 70 -16 102 -20z
m299 -388 l58 -69 -7 -186 c-4 -103 -14 -237 -21 -299 -27 -209 17 -304 135
-290 50 6 50 6 50 -22 l0 -29 -142 45 c-79 25 -151 49 -160 54 -9 5 -25 34
-34 64 l-17 54 31 83 c34 90 52 169 52 224 0 19 -15 112 -34 207 -19 94 -37
196 -41 226 l-6 54 39 -24 c22 -13 65 -55 97 -92z m735 -86 c0 -39 -36 -109
-49 -95 -5 5 -16 56 -25 114 -9 58 -19 116 -22 130 -4 17 11 3 45 -44 39 -53
51 -77 51 -105z m-622 122 c56 -3 102 -9 102 -12 0 -3 -9 -12 -20 -19 -24 -15
-28 -77 -5 -86 14 -5 22 -46 10 -46 -12 0 -82 39 -121 68 -50 37 -119 120 -89
108 11 -4 66 -10 123 -13z m38 -398 l30 -20 18 -165 c29 -259 26 -280 -37
-280 -102 0 -134 96 -107 316 5 43 12 119 16 169 l6 89 22 -44 c11 -25 35 -54
52 -65z m-1404 -78 l32 -13 -207 -132 c-175 -113 -211 -131 -233 -126 -26 7
-26 8 -8 21 10 8 70 46 132 84 61 39 112 74 112 79 0 6 -11 12 -25 16 -14 3
-25 9 -25 13 0 3 26 23 58 44 61 41 93 43 164 14z m116 -38 c34 -11 62 -24 61
-27 0 -4 -83 -67 -185 -140 -125 -91 -191 -132 -206 -130 -16 2 9 24 105 93
70 50 127 93 127 97 0 3 -16 12 -36 18 -35 12 -37 11 -171 -80 -109 -75 -138
-91 -155 -83 -16 7 12 29 184 140 112 72 206 132 209 132 3 1 33 -8 67 -20z
m171 -54 c45 -14 81 -29 81 -33 0 -4 -81 -69 -180 -144 -163 -126 -210 -153
-224 -130 -3 5 47 48 109 98 63 49 115 91 115 94 0 3 -20 11 -45 18 l-45 12
-115 -90 c-103 -81 -155 -108 -155 -80 0 5 44 40 98 79 53 38 138 99 187 135
50 36 91 66 92 66 1 0 38 -11 82 -25z m189 -60 c35 -10 61 -21 60 -25 -7 -20
-355 -290 -372 -290 -12 0 -16 3 -10 8 5 5 55 46 112 91 56 46 102 87 102 91
0 5 -16 14 -35 20 -42 14 -38 16 -175 -94 -86 -69 -130 -91 -130 -67 0 14 363
291 376 287 5 -2 38 -12 72 -21z m245 -79 c81 -26 147 -50 146 -54 -1 -11
-346 -297 -363 -300 -33 -7 -13 19 74 100 50 45 89 87 87 91 -1 5 -16 15 -33
22 -30 12 -32 11 -140 -81 -103 -89 -124 -102 -127 -79 -1 6 79 74 177 153 98
78 174 142 169 142 -6 0 -93 -65 -193 -145 -101 -80 -187 -145 -192 -145 -20
0 -2 22 75 90 136 121 126 106 82 124 -20 9 -41 13 -46 10 -5 -3 -55 -46 -111
-95 -92 -80 -136 -107 -126 -79 4 13 361 299 368 296 3 -2 71 -24 153 -50z
m154 -243 c9 -7 15 -14 12 -16 -2 -2 -43 -38 -92 -80 -55 -48 -96 -77 -110
-77 -18 1 -4 18 71 89 50 48 92 90 92 93 0 3 -18 13 -41 22 l-41 17 -85 -78
c-108 -99 -118 -107 -137 -96 -12 6 22 39 147 145 l162 136 3 -72 c2 -52 7
-74 19 -83z m389 71 c46 -15 84 -29 84 -33 1 -12 -335 -329 -344 -324 -4 3 31
45 79 93 48 48 85 93 81 99 -4 5 -23 13 -42 17 -35 6 -39 4 -129 -86 -51 -51
-95 -88 -99 -82 -3 6 57 71 134 145 122 117 140 138 140 165 0 18 3 32 6 32 3
0 44 -12 90 -26z m156 -50 c36 -12 47 -21 51 -42 5 -24 -10 -43 -143 -176
-111 -112 -152 -147 -165 -142 -14 5 0 24 70 97 47 51 83 95 78 99 -4 4 -22
12 -40 18 -31 10 -33 9 -127 -86 -52 -53 -98 -93 -103 -88 -7 7 309 329 328
334 3 1 26 -5 51 -14z m-440 -28 c3 -28 3 -28 55 -23 l51 5 -105 -101 c-95
-92 -143 -125 -143 -99 0 6 36 43 80 83 72 65 96 99 71 99 -5 0 -22 3 -38 6
-27 5 -38 -2 -114 -75 -46 -44 -92 -81 -102 -81 -29 0 -19 12 82 99 74 64 98
80 116 75 18 -4 24 0 29 21 8 33 15 29 18 -9z m625 -66 l20 -39 -133 -143
c-125 -134 -164 -166 -164 -138 0 7 39 53 86 103 l86 90 -32 14 c-18 7 -40 13
-48 13 -9 0 -60 -43 -113 -96 -53 -53 -99 -92 -102 -87 -3 5 59 74 138 153
114 114 147 142 157 132 20 -20 48 -14 60 13 15 34 23 32 45 -15z m192 -26
c29 -8 51 -19 49 -23 -2 -4 -75 -83 -163 -174 -140 -146 -185 -185 -185 -161
0 4 39 49 86 100 47 51 83 97 80 102 -3 5 -26 15 -51 22 l-46 13 -57 -64 c-31
-35 -71 -79 -88 -98 -17 -19 -36 -32 -43 -30 -7 3 49 70 128 154 128 137 144
151 188 161 26 6 48 12 49 13 0 0 24 -6 53 -15z m163 -52 l88 -27 -168 -174
c-118 -122 -172 -172 -185 -170 -14 3 -2 22 60 89 117 129 112 115 51 136
l-53 17 -91 -97 c-62 -66 -97 -97 -110 -94 -13 2 25 47 150 176 93 94 169 172
170 172 0 0 40 -13 88 -28z m201 -63 c40 -12 76 -24 82 -27 5 -3 -29 -40 -75
-83 -77 -71 -85 -76 -104 -64 -12 7 -37 16 -56 20 -34 8 -37 6 -127 -91 -87
-93 -93 -98 -119 -89 -15 6 -26 15 -25 20 2 6 75 86 163 178 101 106 166 166
175 163 7 -3 46 -15 86 -27z"/>
<path d="M2862 4146 c-87 -10 -107 -28 -37 -34 49 -4 96 4 120 22 27 20 9 22
-83 12z"/>
<path d="M2150 4050 c-14 -4 -42 -8 -62 -9 -63 -2 -43 -21 21 -21 44 0 65 5
82 20 22 18 23 19 4 19 -11 -1 -31 -5 -45 -9z"/>
<path d="M2773 3981 c-50 -4 -94 -9 -98 -13 -20 -20 197 -21 380 -1 147 16
-78 27 -282 14z"/>
<path d="M2775 3853 c8 -85 25 -142 32 -110 3 11 -1 57 -7 103 -15 108 -35
113 -25 7z"/>
<path d="M2910 3886 c0 -56 10 -106 21 -106 11 0 11 39 3 104 -8 58 -24 60
-24 2z"/>
<path d="M2845 3838 c8 -115 14 -148 27 -148 10 0 7 75 -8 188 -11 75 -25 45
-19 -40z"/>
<path d="M2196 3813 c11 -52 36 -113 46 -113 6 0 7 7 4 15 -3 9 -13 40 -22 70
-16 56 -39 78 -28 28z"/>
<path d="M2351 3827 c-40 -20 -60 -58 -77 -144 -16 -78 -31 -101 -49 -73 -3 6
-13 10 -21 10 -12 0 -14 -11 -12 -46 4 -58 34 -85 105 -91 38 -4 65 2 126 26
49 20 95 31 126 31 33 0 56 6 74 20 14 11 33 20 42 20 29 0 65 46 65 84 0 32
-39 96 -59 96 -4 0 -13 -19 -21 -42 -8 -23 -20 -43 -27 -45 -6 -2 -49 34 -95
81 -74 75 -89 86 -119 86 -19 0 -45 -6 -58 -13z m132 -53 c23 -26 66 -70 95
-99 47 -47 52 -56 42 -74 -8 -15 -21 -21 -45 -21 -53 0 -136 -20 -187 -46 -61
-31 -104 -32 -113 -3 -5 15 -9 18 -15 9 -12 -20 -43 -7 -53 23 -5 16 -7 31 -4
33 6 6 49 -16 59 -31 11 -15 30 45 38 125 7 66 11 77 39 102 50 44 92 39 144
-18z m215 -69 c16 -35 15 -55 -5 -77 -40 -44 -81 1 -44 48 12 15 21 33 21 40
0 23 16 16 28 -11z"/>
<path d="M2510 3646 c0 -29 17 -43 33 -27 8 8 9 16 1 28 -17 27 -34 27 -34 -1z"/>
<path d="M2334 3607 c-8 -22 11 -46 26 -31 7 7 5 17 -4 30 -14 18 -15 18 -22
1z"/>
<path d="M2150 3806 c0 -2 11 -37 25 -77 24 -71 45 -108 45 -78 0 24 -52 159
-61 159 -5 0 -9 -2 -9 -4z"/>
<path d="M2113 3786 c3 -8 11 -34 17 -57 6 -23 17 -50 23 -60 25 -39 25 -16 0
56 -13 41 -29 75 -35 75 -6 0 -8 -6 -5 -14z"/>
<path d="M2887 3012 c-20 -22 -22 -63 -5 -80 7 -7 24 -12 38 -12 34 0 50 17
50 55 0 17 -5 36 -12 43 -18 18 -53 15 -71 -6z"/>
<path d="M2970 2805 c-6 -8 -10 -22 -8 -32 5 -25 86 -26 101 -1 24 38 -63 69
-93 33z"/>
<path d="M4025 2971 c53 -7 84 -20 105 -46 11 -13 10 -22 -5 -56 -22 -49 -12
-92 23 -97 33 -5 49 37 35 91 -15 53 -4 67 51 67 48 0 81 -26 96 -76 l8 -29 1
27 c1 35 -41 84 -79 92 -19 3 -46 0 -66 -9 -34 -14 -37 -13 -76 15 -34 25 -50
30 -92 29 l-51 -2 50 -6z m146 -168 c-13 -28 -27 -29 -41 -3 -12 21 -6 55 13
79 18 21 42 -45 28 -76z"/>
<path d="M902 1810 c0 -14 2 -19 5 -12 2 6 2 18 0 25 -3 6 -5 1 -5 -13z"/>
<path d="M920 1710 c8 -5 20 -10 25 -10 6 0 3 5 -5 10 -8 5 -19 10 -25 10 -5
0 -3 -5 5 -10z"/>
<path d="M2490 1156 c0 -2 7 -7 16 -10 8 -3 12 -2 9 4 -6 10 -25 14 -25 6z"/>
</g>
</svg>
