<?xml version="1.0" standalone="no"?>
<!DOCTYPE svg PUBLIC "-//W3C//DTD SVG 20010904//EN"
 "http://www.w3.org/TR/2001/REC-SVG-20010904/DTD/svg10.dtd">
<svg version="1.0" xmlns="http://www.w3.org/2000/svg"
 width="620.000000pt" height="619.000000pt" viewBox="0 0 620.000000 619.000000"
 preserveAspectRatio="xMidYMid meet">

<g transform="translate(0.000000,619.000000) scale(0.100000,-0.100000)"
fill="#000000" stroke="none">
<path d="M2250 5601 c-231 -50 -430 -189 -549 -383 -185 -300 -153 -662 83
-938 31 -36 56 -68 56 -71 0 -4 -7 -20 -15 -35 -20 -39 -19 -125 2 -167 10
-18 37 -49 60 -68 24 -19 43 -38 43 -42 0 -5 -22 -29 -49 -53 -27 -25 -54 -59
-60 -77 -6 -18 -29 -140 -51 -272 -22 -132 -52 -289 -66 -350 -38 -160 -41
-214 -16 -283 11 -31 32 -102 46 -157 24 -97 101 -316 131 -375 14 -27 12 -38
-30 -177 -56 -183 -100 -355 -114 -450 -17 -108 -14 -328 5 -419 13 -61 55
-192 69 -212 1 -1 26 11 56 28 73 40 92 40 85 -2 -3 -18 -11 -70 -16 -116 -6
-46 -14 -90 -17 -97 -3 -8 -33 -28 -66 -44 -68 -31 -90 -51 -106 -94 -15 -39
-17 -173 -3 -190 8 -10 76 -16 259 -26 136 -7 281 -17 322 -23 116 -18 552 -3
668 21 97 21 148 42 155 63 8 23 -23 141 -54 206 -41 88 -116 133 -245 149
-43 5 -57 11 -63 27 -12 27 -31 157 -25 167 5 7 98 -12 265 -55 52 -13 96 -23
98 -21 2 2 -12 23 -30 47 -60 78 -163 292 -229 475 -30 82 -32 101 -40 273 -9
198 -28 335 -58 409 -15 35 -21 82 -25 201 -3 85 -9 172 -12 193 -8 45 5 48
30 5 37 -61 87 -108 116 -108 67 0 446 152 709 286 l125 63 29 -25 c35 -29 51
-30 121 -3 79 29 116 67 116 117 0 51 -21 109 -65 182 -19 32 -35 60 -35 63 0
18 189 97 231 97 6 0 23 8 37 19 31 22 83 26 75 5 -3 -7 17 -28 48 -51 59 -42
51 -52 -26 -29 -64 20 -71 13 -8 -7 114 -37 336 -65 293 -37 -12 8 -11 10 8
10 15 0 22 6 22 19 0 11 -4 23 -10 26 -5 3 -10 1 -10 -5 0 -6 -11 -15 -25 -20
-18 -7 -42 -3 -93 14 -93 32 -107 40 -129 78 -16 26 -19 49 -17 113 1 44 7 99
13 121 6 23 9 48 6 56 -3 8 1 33 10 57 21 61 19 71 -16 83 -23 8 -28 14 -23
27 13 28 16 111 6 124 -12 13 14 127 31 138 5 4 6 12 2 19 -6 9 -4 11 5 5 10
-6 12 -4 7 9 -4 10 -3 15 3 11 9 -5 11 -1 10 20 -2 33 128 188 152 183 7 -2
12 3 10 11 -2 8 14 31 34 52 21 21 36 41 33 43 -7 7 -98 -58 -150 -109 -60
-58 -141 -188 -194 -310 -39 -91 -71 -139 -86 -129 -5 3 -9 1 -9 -4 0 -12
-151 -125 -158 -118 -2 3 1 33 7 67 7 33 10 64 7 67 -3 3 -6 -4 -6 -16 0 -12
-12 -32 -27 -45 -87 -73 -84 -67 -103 -167 l-19 -95 -63 -58 c-59 -55 -65 -58
-103 -53 -59 7 -160 -46 -263 -138 -142 -127 -425 -336 -455 -336 -18 0 -56
112 -112 336 -45 176 -67 232 -116 295 -30 39 -40 85 -16 76 8 -3 39 -8 70
-12 53 -7 58 -6 84 22 24 24 62 74 108 141 16 23 136 151 179 191 63 59 69 79
52 164 l-15 72 36 70 c27 52 37 84 38 125 2 30 13 87 26 125 19 59 22 93 23
210 1 120 -2 151 -22 215 -50 160 -152 312 -277 412 -79 64 -212 131 -310 158
-114 31 -301 36 -415 11z m841 -1180 c32 -49 27 -61 -24 -61 -63 0 -82 35 -56
109 11 31 12 32 32 14 11 -10 33 -38 48 -62z m-293 -474 c-9 -18 -11 -18 -26
-3 -15 14 -15 17 3 30 25 18 38 1 23 -27z m32 -42 c-8 -10 -17 -12 -23 -6 -5
5 -6 19 -2 31 6 20 9 21 23 7 13 -13 13 -19 2 -32z m46 -16 c10 -16 -23 -46
-36 -33 -6 6 -8 18 -4 27 7 19 29 22 40 6z m54 -32 c0 -23 -34 -47 -50 -37
-12 7 -11 12 4 29 22 24 46 28 46 8z"/>
<path d="M4495 4474 c-22 -22 -15 -26 24 -11 27 10 33 9 41 -3 8 -12 10 -10
10 8 0 18 -6 22 -29 22 -16 0 -37 -7 -46 -16z"/>
<path d="M4185 4328 l-40 -43 43 40 c39 36 47 45 39 45 -2 0 -21 -19 -42 -42z"/>
<path d="M4109 4238 c-28 -39 -69 -110 -56 -98 10 10 95 140 91 140 -2 0 -18
-19 -35 -42z"/>
<path d="M4016 4075 c-9 -26 -7 -32 5 -12 6 10 9 21 6 23 -2 3 -7 -2 -11 -11z"/>
<path d="M3996 4025 c-9 -26 -7 -32 5 -12 6 10 9 21 6 23 -2 3 -7 -2 -11 -11z"/>
<path d="M3971 3959 c-6 -18 -11 -37 -10 -43 0 -6 7 7 15 28 8 22 12 41 10 43
-2 2 -9 -10 -15 -28z"/>
</g>
</svg>
