<?xml version="1.0" standalone="no"?>
<!DOCTYPE svg PUBLIC "-//W3C//DTD SVG 20010904//EN"
 "http://www.w3.org/TR/2001/REC-SVG-20010904/DTD/svg10.dtd">
<svg version="1.0" xmlns="http://www.w3.org/2000/svg"
 width="801.000000pt" height="800.000000pt" viewBox="0 0 801.000000 800.000000"
 preserveAspectRatio="xMidYMid meet">

<g transform="translate(0.000000,800.000000) scale(0.100000,-0.100000)"
fill="#000000" stroke="none">
<path d="M5512 7472 c-71 -95 -127 -145 -272 -242 -69 -46 -154 -105 -188
-131 l-64 -48 -51 21 c-355 145 -551 184 -874 175 -227 -6 -356 -28 -572 -99
l-125 -40 -56 30 c-70 39 -199 76 -350 102 -65 10 -141 28 -169 39 -28 10 -51
17 -51 14 0 -14 123 -56 228 -78 222 -45 324 -84 405 -156 51 -44 127 -161
148 -224 16 -53 24 -27 10 32 -17 66 -56 138 -102 188 l-40 44 113 36 c461
146 923 131 1352 -44 54 -22 101 -42 103 -45 3 -2 -13 -28 -35 -58 -53 -69
-92 -154 -91 -198 0 -32 2 -31 18 22 42 131 118 209 366 378 166 114 249 184
303 259 39 53 40 36 6 -61 -41 -114 -88 -196 -168 -290 -81 -95 -131 -173
-175 -270 -37 -81 -84 -233 -78 -256 2 -9 13 17 26 58 12 41 36 107 53 147 24
57 37 75 63 87 31 15 55 20 55 13 0 -2 -10 -23 -22 -48 -14 -29 -23 -69 -26
-116 -5 -93 13 -98 21 -6 4 58 9 70 32 88 14 11 47 38 72 60 l46 40 -8 -65
c-4 -42 -15 -78 -31 -102 -34 -54 -30 -58 11 -11 31 36 92 83 108 83 2 0 -6
-27 -20 -60 -17 -44 -23 -75 -21 -113 l3 -52 16 50 c13 41 21 51 41 53 l25 3
-28 -57 c-23 -44 -29 -70 -29 -118 0 -34 5 -68 10 -76 7 -11 10 1 10 40 0 71
24 167 52 204 l21 29 -42 -6 c-39 -5 -41 -4 -36 16 4 12 17 43 29 70 22 45 22
47 4 47 -10 0 -36 -9 -58 -20 -22 -11 -41 -20 -44 -20 -2 0 -2 17 1 38 6 51
-11 154 -21 127 -5 -11 -13 -33 -18 -48 -10 -26 -94 -105 -102 -96 -3 2 4 22
15 43 10 22 19 41 19 43 0 7 -53 2 -71 -7 -13 -8 -19 -7 -19 0 0 19 64 112
138 200 86 101 165 253 187 354 21 104 8 111 -53 28z"/>
<path d="M5592 7440 c0 -8 4 -26 8 -40 6 -20 8 -21 8 -5 0 11 -3 29 -8 40 -5
12 -8 14 -8 5z"/>
<path d="M2660 7343 c0 -70 22 -268 41 -363 27 -139 73 -289 115 -372 l34 -67
-35 -86 c-125 -312 -171 -557 -162 -871 l5 -191 -41 8 c-99 19 -278 2 -357
-35 -19 -9 -27 -14 -17 -11 10 2 61 12 114 21 106 18 286 15 305 -4 11 -11 57
-179 58 -209 0 -9 -17 -13 -54 -13 -69 0 -204 -26 -270 -51 -60 -24 -140 -69
-133 -75 2 -3 20 4 38 15 92 54 402 123 428 95 15 -15 71 -156 65 -165 -2 -4
-29 -19 -59 -33 -114 -52 -247 -156 -320 -250 -25 -32 -45 -61 -45 -64 0 -3
39 33 88 79 48 47 116 105 152 131 69 49 176 108 194 108 6 0 24 -26 41 -58
16 -31 58 -100 94 -152 53 -78 66 -105 73 -153 10 -72 36 -125 83 -166 41 -36
157 -96 207 -106 92 -20 268 -87 306 -117 9 -8 -20 -28 -105 -75 -65 -36 -143
-83 -174 -103 l-56 -38 -54 44 c-30 24 -92 64 -139 88 -83 43 -264 110 -282
104 -5 -2 42 -24 104 -50 185 -78 260 -127 376 -246 56 -58 102 -101 102 -96
0 6 -20 41 -45 79 -25 37 -44 69 -43 70 2 0 21 12 43 26 106 68 288 169 304
169 20 0 170 -105 241 -167 l44 -40 -45 -20 c-26 -12 -55 -33 -65 -48 -11 -15
-26 -35 -35 -45 -12 -12 -17 -38 -18 -85 -1 -61 2 -69 28 -96 19 -19 40 -29
58 -29 27 0 26 1 -12 19 -40 18 -65 53 -65 91 0 25 7 25 74 -2 53 -22 54 -24
50 -56 -2 -19 -7 -38 -9 -43 -3 -4 9 -16 26 -25 60 -31 152 -1 165 54 4 15 16
37 27 49 13 15 17 28 12 40 -8 16 -9 15 -13 -6 -2 -13 -13 -26 -23 -28 -13 -4
-18 -11 -15 -20 19 -48 -93 -105 -143 -74 -20 13 26 70 57 70 38 1 14 21 -26
21 -40 1 -131 36 -162 63 -18 15 -18 53 0 42 4 -3 11 6 14 20 10 39 72 75 129
75 78 0 117 -34 150 -130 3 -8 6 4 6 27 1 36 -5 50 -34 82 l-35 38 88 17 c226
45 438 112 617 195 l107 51 82 -42 c53 -28 107 -66 155 -113 59 -55 70 -63 55
-37 -31 55 -100 111 -190 154 -46 22 -84 44 -84 48 0 4 38 30 85 59 166 101
373 276 436 367 16 24 35 44 41 44 18 0 168 -151 230 -233 33 -44 80 -111 105
-150 25 -40 42 -61 38 -47 -28 96 -177 287 -318 408 -32 27 -46 46 -41 54 4 7
32 52 62 100 50 81 56 87 76 76 49 -26 142 -94 228 -166 151 -128 167 -138 71
-44 -51 50 -139 121 -200 162 -59 40 -109 73 -110 74 -3 2 96 239 102 244 13
13 273 -86 418 -159 43 -22 81 -38 84 -36 6 7 -106 73 -189 111 -77 36 -195
78 -265 96 -41 10 -42 12 -37 43 3 18 10 46 15 62 14 44 49 265 48 300 -1 17
-5 3 -11 -30 -14 -93 -47 -255 -62 -305 -10 -34 -18 -44 -32 -43 -163 22 -306
34 -321 28 -12 -5 21 -13 95 -21 104 -12 217 -36 229 -47 2 -3 -16 -55 -42
-117 -39 -90 -50 -110 -64 -104 -78 34 -196 74 -232 79 -38 5 -34 3 29 -19 40
-15 102 -39 138 -56 l65 -29 -22 -43 c-23 -45 -89 -148 -95 -148 -2 0 -52 27
-110 61 -58 33 -108 58 -111 56 -3 -3 10 -13 29 -23 18 -9 66 -39 106 -66 l73
-49 -27 -37 c-99 -135 -336 -326 -544 -440 -151 -82 -363 -163 -559 -211 -219
-55 -224 -51 -46 37 267 131 429 238 626 415 83 74 101 96 134 164 257 529
288 927 107 1356 -57 133 -115 220 -202 300 -221 205 -508 299 -869 284 -160
-7 -259 -21 -457 -66 -149 -34 -180 -47 -281 -113 -175 -116 -315 -286 -374
-454 -49 -142 -63 -327 -35 -494 18 -103 117 -531 146 -629 20 -68 20 -141 0
-141 -23 0 -176 251 -166 275 3 9 18 15 36 15 16 0 30 5 30 11 0 6 -18 9 -47
8 l-48 -3 -23 48 c-13 27 -26 61 -29 77 -5 27 -3 29 28 30 l34 1 -38 10 c-20
6 -41 18 -46 27 -14 25 -53 183 -47 188 3 3 26 -2 51 -10 56 -20 49 -2 -11 24
-24 11 -46 23 -49 28 -2 5 -10 65 -16 134 -23 256 24 549 137 857 49 135 45
132 99 74 50 -52 46 -43 -30 76 -64 99 -99 182 -134 328 -37 151 -82 462 -66
462 3 0 19 -30 37 -67 44 -93 151 -198 291 -283 92 -56 102 -65 79 -68 -15 -2
-35 -11 -44 -19 -17 -15 -17 -17 0 -29 16 -13 16 -13 -1 -14 -25 0 -59 18 -79
44 -15 18 -19 19 -28 6 -22 -33 -5 -135 30 -183 16 -21 19 -32 11 -40 -23 -23
-11 -32 37 -29 45 3 46 2 27 -13 -14 -12 -36 -15 -73 -13 -56 3 -57 2 -42 -54
14 -47 61 -88 103 -88 l32 1 -45 23 c-30 16 -51 36 -63 60 l-17 36 43 0 c23 0
53 7 65 16 13 9 34 14 48 11 25 -4 33 7 13 19 -6 4 -32 12 -58 18 l-46 12 29
19 c16 11 47 22 70 26 38 7 37 7 -14 5 -30 -1 -63 -6 -72 -10 -14 -7 -21 0
-36 35 -22 51 -35 109 -24 109 4 -1 18 -7 32 -15 14 -8 39 -14 57 -15 30 0 63
-21 63 -41 0 -5 5 -9 10 -9 21 0 8 34 -25 66 l-35 33 34 6 c50 10 73 -1 141
-64 33 -30 73 -67 89 -81 l29 -25 -19 33 c-37 65 -156 165 -295 246 -144 86
-218 150 -282 248 -39 60 -45 74 -24 62 6 -4 -4 9 -22 29 -19 21 -36 37 -38
37 -2 0 -3 -12 -3 -27z m2375 -1834 c9 -40 19 -107 22 -150 3 -45 10 -79 17
-79 5 0 30 19 54 43 l45 42 -7 -50 c-7 -56 -20 -70 -81 -86 -22 -5 -70 -21
-107 -34 -73 -26 -72 -26 -103 34 -9 19 -44 60 -76 92 -53 50 -58 59 -50 80 5
13 12 32 15 43 5 15 14 7 50 -41 42 -58 75 -80 125 -85 23 -3 24 -1 22 60 -3
65 34 216 50 207 4 -3 15 -37 24 -76z m-1322 -48 c17 -25 67 -86 112 -136 99
-111 135 -154 135 -164 0 -8 -140 -65 -144 -59 -2 2 -16 27 -31 56 -16 30 -56
79 -90 110 l-60 56 0 95 c0 53 4 110 9 126 l9 30 14 -34 c8 -19 29 -55 46 -80z
m806 41 c11 -16 23 -40 26 -55 7 -26 5 -27 -30 -27 -34 0 -37 2 -31 23 3 12 6
37 6 55 0 39 3 40 29 4z m-270 -160 l32 -27 -28 -40 c-15 -22 -37 -65 -50 -95
-16 -40 -27 -54 -40 -53 -10 1 -53 7 -95 14 -74 11 -90 22 -69 45 5 5 18 36
29 69 12 33 21 52 21 43 1 -10 5 -18 10 -18 16 0 69 71 93 125 l23 53 22 -45
c11 -25 35 -57 52 -71z m-961 41 c18 -30 31 -57 30 -58 -2 -1 -20 -12 -40 -24
l-38 -23 0 81 c0 45 3 81 8 81 4 0 22 -26 40 -57z m-239 -27 c23 -42 80 -100
130 -133 2 -1 -10 -32 -28 -68 -17 -36 -31 -74 -31 -85 0 -43 -10 -50 -70 -50
-33 0 -62 5 -65 10 -9 14 -42 137 -49 185 l-6 40 22 -30 c42 -56 93 -103 118
-110 l25 -7 -27 28 c-43 46 -58 94 -58 189 0 47 2 85 4 85 2 0 18 -24 35 -54z
m2101 -153 c0 -29 -36 -170 -69 -273 -17 -52 -59 -154 -95 -225 -83 -168 -129
-214 -289 -290 -277 -130 -544 -183 -862 -172 -256 10 -522 63 -656 133 -49
25 -111 86 -130 129 -21 45 -24 125 -8 189 9 36 6 59 -20 163 -17 67 -31 127
-31 132 0 7 24 11 59 11 l59 0 6 -54 c9 -72 54 -162 107 -215 64 -63 136 -94
234 -99 106 -5 178 21 253 92 67 63 99 124 113 218 15 97 21 111 65 144 34 26
45 29 119 29 72 0 86 -3 122 -27 37 -24 42 -33 56 -97 9 -39 25 -87 36 -108
50 -97 148 -169 264 -193 159 -32 335 58 405 208 23 49 27 71 28 156 l1 99
104 32 c125 39 129 40 129 18z m-500 -863 c-27 -21 -40 -25 -40 -12 0 5 12 13
28 19 39 16 40 15 12 -7z m-75 -30 c17 -18 15 -20 -66 -74 -166 -107 -533
-288 -549 -269 -4 4 -15 28 -24 53 -21 53 -80 152 -101 170 -8 7 -15 15 -15
19 0 3 57 7 126 8 202 4 449 46 564 97 45 19 44 20 65 -4z m-880 -80 c78 -9
81 -11 122 -56 41 -46 103 -150 103 -173 0 -6 -25 9 -55 34 -67 54 -180 131
-257 175 -32 17 -58 34 -58 37 0 3 15 2 33 -1 17 -3 68 -10 112 -16z"/>
<path d="M3936 4891 c-3 -5 1 -14 9 -21 13 -10 15 -9 15 9 0 21 -14 28 -24 12z"/>
<path d="M3903 4719 c-47 -14 -56 -39 -50 -135 5 -86 38 -178 85 -234 35 -43
34 -16 -3 62 -38 80 -71 214 -61 252 3 13 14 27 23 32 10 4 100 9 200 11 l182
3 6 -45 c10 -60 -9 -158 -40 -210 -33 -57 -111 -125 -144 -126 -14 0 -48 0
-76 1 -41 1 -48 -1 -37 -11 7 -8 34 -13 65 -13 93 2 180 62 230 159 36 71 41
210 8 249 -9 11 -49 14 -184 14 -94 0 -187 -4 -204 -9z"/>
<path d="M5613 7350 c40 -167 53 -458 28 -614 -11 -68 -87 -366 -107 -421 -18
-50 19 7 45 69 l29 69 16 -57 c43 -147 87 -389 99 -546 3 -38 4 -35 5 17 3 86
-30 292 -74 471 l-37 152 23 117 c31 160 41 305 30 443 -9 114 -43 307 -56
319 -4 3 -4 -5 -1 -19z"/>
<path d="M5284 6596 c-28 -13 -54 -32 -58 -42 -6 -17 -6 -17 11 -1 27 23 87
47 122 47 29 0 29 -1 19 -34 -15 -48 -2 -101 33 -139 l30 -32 -14 30 c-36 73
-38 113 -12 178 6 15 1 17 -36 17 -25 0 -66 -10 -95 -24z"/>
<path d="M2378 4389 c-44 -23 -60 -48 -68 -109 -5 -45 -5 -45 -50 -51 -59 -7
-123 -41 -151 -81 -31 -43 -38 -132 -14 -177 12 -25 15 -45 10 -81 -13 -95 40
-234 108 -284 25 -18 43 -21 133 -21 57 0 104 3 104 8 0 4 -45 7 -99 7 -93 0
-102 2 -131 26 -17 15 -43 49 -57 77 -25 51 -48 175 -35 189 4 4 30 -4 56 -17
27 -14 61 -25 75 -25 25 1 25 1 -6 15 -57 25 -122 75 -139 107 -22 43 -15 125
15 167 25 35 79 66 133 76 34 6 37 5 59 -36 32 -57 58 -66 30 -10 -23 45 -27
116 -9 155 18 40 89 70 152 63 94 -9 176 -61 249 -157 34 -46 45 -33 14 17
-83 132 -268 201 -379 142z"/>
<path d="M2443 4332 c-41 -6 -64 -59 -44 -100 4 -9 16 -34 26 -54 18 -38 80
-78 119 -78 27 0 76 55 76 85 0 84 -92 160 -177 147z m74 -41 c70 -32 97 -115
48 -147 -23 -15 -30 -15 -63 -2 -63 24 -108 132 -64 157 23 14 31 13 79 -8z"/>
<path d="M5324 4161 c-43 -20 -82 -64 -104 -119 -7 -18 -34 -50 -61 -72 -50
-43 -109 -123 -109 -149 0 -9 10 0 21 19 12 19 52 67 89 106 36 39 77 90 91
114 61 110 193 132 236 39 22 -47 37 -51 28 -6 -9 39 -20 54 -56 73 -38 19
-86 17 -135 -5z"/>
<path d="M5543 4150 c-37 -15 -27 -18 37 -13 102 10 142 -33 150 -161 l6 -81
14 48 c14 46 15 47 56 47 97 0 150 -111 109 -225 -4 -11 2 -7 14 10 38 55 23
153 -32 204 -19 18 -40 24 -79 27 -45 2 -53 6 -59 26 -21 81 -77 128 -150 127
-24 0 -54 -4 -66 -9z"/>
<path d="M5350 4107 c-60 -30 -92 -134 -52 -170 30 -27 87 -22 123 11 26 23
32 38 37 80 4 41 1 57 -13 72 -21 23 -59 26 -95 7z m79 -38 c28 -50 -19 -129
-77 -129 -66 0 -71 70 -9 138 27 30 67 26 86 -9z"/>
<path d="M2193 4090 c-27 -16 -33 -26 -33 -55 0 -105 117 -183 207 -138 62 30
68 91 16 154 -50 59 -131 76 -190 39z m117 -22 c51 -26 85 -76 76 -112 -9 -36
-66 -59 -114 -46 -87 23 -132 144 -64 169 41 14 54 13 102 -11z"/>
<path d="M5578 4049 c-26 -15 -66 -88 -73 -134 -9 -54 17 -89 67 -89 71 0 128
65 128 145 0 49 -15 71 -60 84 -24 7 -23 5 8 -23 36 -34 40 -63 18 -116 -23
-56 -92 -86 -124 -54 -29 29 -6 114 46 171 26 27 21 35 -10 16z"/>
<path d="M2552 4009 c-111 -55 -144 -229 -59 -316 25 -27 39 -33 73 -33 81 0
179 51 225 118 52 76 16 187 -73 231 -56 27 -111 27 -166 0z m148 -28 c76 -40
102 -126 57 -192 -33 -49 -107 -92 -171 -97 -45 -4 -56 -1 -80 20 -34 28 -46
82 -34 148 20 113 132 173 228 121z"/>
<path d="M5767 3864 c-63 -66 -74 -144 -21 -164 57 -22 144 65 144 144 0 28
-17 44 -56 52 -25 5 -36 0 -67 -32z m87 -38 c0 -42 -5 -53 -33 -78 -53 -47
-93 -27 -77 38 10 38 66 95 90 92 18 -3 21 -10 20 -52z"/>
<path d="M5314 3845 c-96 -43 -99 -162 -6 -258 78 -81 191 -109 276 -67 54 26
76 61 76 121 0 77 -56 136 -177 183 -82 32 -131 38 -169 21z m163 -40 c106
-48 163 -108 163 -170 0 -108 -167 -146 -280 -64 -55 40 -100 112 -100 160 0
55 9 69 54 90 49 23 86 20 163 -16z"/>
<path d="M3825 3805 c31 -24 141 -55 201 -55 64 0 73 14 11 17 -36 2 -152 28
-212 48 -20 7 -20 7 0 -10z"/>
<path d="M3396 3739 c-27 -60 -93 -254 -135 -399 -17 -56 -146 -81 -248 -46
-28 9 -138 67 -245 128 -199 114 -296 163 -306 153 -3 -3 -1 -5 4 -5 9 0 117
-59 321 -177 173 -101 242 -128 328 -127 39 0 85 3 104 8 l33 9 -7 -33 c-19
-85 -105 -231 -247 -418 -48 -63 -111 -163 -143 -225 -31 -62 -72 -137 -91
-168 -47 -78 -80 -169 -104 -290 -25 -120 -18 -106 -132 -281 -96 -149 -128
-209 -128 -248 0 -16 12 2 34 53 19 42 65 126 104 185 95 147 107 173 143 314
36 139 78 238 142 336 25 37 59 95 76 130 17 34 73 118 124 185 90 117 177
254 177 276 0 6 5 11 10 11 6 0 10 -7 10 -17 0 -33 10 -3 60 181 28 104 76
265 106 359 31 93 53 171 50 175 -3 3 -21 -28 -40 -69z"/>
<path d="M2195 3770 c-33 -37 0 -116 61 -145 63 -30 124 -1 124 59 0 75 -137
139 -185 86z m115 -25 c69 -44 62 -105 -13 -105 -39 0 -87 49 -87 88 0 16 3
32 7 35 14 14 55 6 93 -18z"/>
<path d="M5845 3655 c-23 -62 -193 -320 -258 -391 -27 -29 -75 -71 -109 -94
-69 -46 -68 -52 3 -13 93 50 351 381 380 485 16 60 5 69 -16 13z"/>
<path d="M4610 3602 c0 -5 27 -49 59 -98 52 -79 159 -195 217 -235 18 -12 22
-28 27 -119 6 -104 32 -227 56 -265 11 -19 12 -18 8 5 -3 14 -12 52 -21 85
-17 67 -35 183 -36 233 0 40 13 41 88 3 60 -30 162 -64 170 -56 3 2 -6 9 -19
14 -237 91 -344 170 -486 359 -35 46 -63 79 -63 74z"/>
<path d="M3758 3297 c-77 -67 -140 -91 -238 -92 l-85 -1 -62 -120 c-83 -160
-121 -263 -102 -275 25 -16 312 -106 419 -133 189 -46 295 -59 465 -60 174 0
275 18 386 67 l55 24 -4 44 c-6 88 -33 320 -38 332 -3 10 -20 12 -58 9 -101
-8 -176 46 -211 155 l-17 52 -51 5 c-29 3 -134 11 -234 18 l-181 13 -44 -38z
m291 -2 c107 -8 198 -18 201 -22 4 -5 12 -27 20 -50 29 -95 109 -153 208 -153
l60 0 12 -97 c6 -54 12 -134 13 -177 l2 -79 -58 -24 c-104 -42 -191 -56 -352
-56 -219 0 -424 39 -713 135 l-154 51 6 31 c4 17 38 97 77 177 l71 146 87 5
c98 6 168 33 236 93 22 19 51 34 65 35 14 0 112 -7 219 -15z"/>
<path d="M3785 3259 c-4 -6 -5 -13 -2 -16 7 -7 27 6 27 18 0 12 -17 12 -25 -2z"/>
<path d="M3940 3250 c0 -5 10 -10 23 -10 18 0 19 2 7 10 -19 13 -30 13 -30 0z"/>
<path d="M4025 3240 c-4 -6 3 -10 14 -10 25 0 27 6 6 13 -8 4 -17 2 -20 -3z"/>
<path d="M4100 3230 c0 -5 10 -10 23 -10 18 0 19 2 7 10 -19 13 -30 13 -30 0z"/>
<path d="M4180 3210 c0 -5 5 -10 10 -10 6 0 10 5 10 10 0 6 -4 10 -10 10 -5 0
-10 -4 -10 -10z"/>
<path d="M3730 3200 c-8 -5 -11 -12 -7 -16 4 -4 15 0 24 9 18 18 8 23 -17 7z"/>
<path d="M3655 3160 c-3 -5 1 -10 9 -10 8 0 18 5 21 10 3 6 -1 10 -9 10 -8 0
-18 -4 -21 -10z"/>
<path d="M4231 3144 c0 -11 3 -14 6 -6 3 7 2 16 -1 19 -3 4 -6 -2 -5 -13z"/>
<path d="M3500 3140 c0 -5 7 -10 15 -10 8 0 15 5 15 10 0 6 -7 10 -15 10 -8 0
-15 -4 -15 -10z"/>
<path d="M3570 3140 c0 -5 9 -10 20 -10 11 0 20 5 20 10 0 6 -9 10 -20 10 -11
0 -20 -4 -20 -10z"/>
<path d="M3416 3094 c-9 -22 3 -32 14 -14 12 19 12 30 1 30 -5 0 -12 -7 -15
-16z"/>
<path d="M4260 3091 c0 -5 7 -12 16 -15 24 -9 28 -7 14 9 -14 17 -30 20 -30 6z"/>
<path d="M4330 3051 c0 -12 28 -22 35 -12 3 5 -2 12 -11 15 -21 8 -24 8 -24
-3z"/>
<path d="M4410 3029 c0 -5 9 -9 20 -9 11 0 20 2 20 4 0 2 -9 6 -20 9 -11 3
-20 1 -20 -4z"/>
<path d="M3383 3015 c-9 -25 4 -29 17 -6 7 15 7 21 0 21 -6 0 -13 -7 -17 -15z"/>
<path d="M4490 2961 c0 -6 5 -13 10 -16 6 -3 10 1 10 9 0 9 -4 16 -10 16 -5 0
-10 -4 -10 -9z"/>
<path d="M3357 2954 c-4 -4 -7 -14 -7 -23 0 -11 3 -12 11 -4 6 6 10 16 7 23
-2 6 -7 8 -11 4z"/>
<path d="M4502 2880 c0 -14 2 -19 5 -12 2 6 2 18 0 25 -3 6 -5 1 -5 -13z"/>
<path d="M3317 2875 c-4 -8 -2 -17 3 -20 6 -4 10 -4 10 -1 0 2 3 11 6 20 3 9
2 16 -4 16 -5 0 -12 -7 -15 -15z"/>
<path d="M3380 2830 c0 -6 7 -10 15 -10 8 0 15 2 15 4 0 2 -7 6 -15 10 -8 3
-15 1 -15 -4z"/>
<path d="M4500 2806 c0 -8 5 -18 10 -21 6 -3 10 3 10 14 0 12 -4 21 -10 21 -5
0 -10 -6 -10 -14z"/>
<path d="M3454 2795 c21 -16 32 -13 21 4 -3 6 -14 11 -23 11 -15 -1 -15 -2 2
-15z"/>
<path d="M3520 2780 c0 -7 24 -20 36 -20 13 0 1 19 -16 23 -11 3 -20 2 -20 -3z"/>
<path d="M3600 2759 c0 -5 9 -9 20 -9 11 0 20 2 20 4 0 2 -9 6 -20 9 -11 3
-20 1 -20 -4z"/>
<path d="M3675 2740 c3 -5 15 -10 26 -10 11 0 17 5 14 10 -3 6 -15 10 -26 10
-11 0 -17 -4 -14 -10z"/>
<path d="M3760 2730 c0 -5 10 -10 23 -10 18 0 19 2 7 10 -19 13 -30 13 -30 0z"/>
<path d="M3840 2720 c0 -5 10 -10 23 -10 18 0 19 2 7 10 -19 13 -30 13 -30 0z"/>
<path d="M3920 2710 c0 -5 9 -10 20 -10 11 0 20 5 20 10 0 6 -9 10 -20 10 -11
0 -20 -4 -20 -10z"/>
<path d="M4415 2710 c-3 -5 3 -10 15 -10 12 0 18 5 15 10 -3 6 -10 10 -15 10
-5 0 -12 -4 -15 -10z"/>
<path d="M4008 2703 c6 -2 18 -2 25 0 6 3 1 5 -13 5 -14 0 -19 -2 -12 -5z"/>
<path d="M4080 2700 c0 -5 9 -10 20 -10 11 0 20 5 20 10 0 6 -9 10 -20 10 -11
0 -20 -4 -20 -10z"/>
<path d="M4255 2700 c-3 -5 3 -10 15 -10 12 0 18 5 15 10 -3 6 -10 10 -15 10
-5 0 -12 -4 -15 -10z"/>
<path d="M4325 2700 c3 -5 12 -10 20 -10 8 0 17 5 20 10 4 6 -5 10 -20 10 -15
0 -24 -4 -20 -10z"/>
<path d="M4168 2693 c6 -2 18 -2 25 0 6 3 1 5 -13 5 -14 0 -19 -2 -12 -5z"/>
<path d="M5036 2700 c4 -14 24 -62 45 -107 20 -45 43 -108 49 -139 7 -31 18
-73 26 -93 l14 -36 -6 40 c-12 85 -35 155 -84 256 -28 57 -47 93 -44 79z"/>
<path d="M2986 2436 c-32 -14 -70 -35 -83 -48 -37 -34 -83 -119 -83 -153 0
-69 75 -135 199 -176 36 -11 107 -40 156 -62 194 -89 305 -38 305 140 0 85
-21 131 -89 201 -73 75 -160 115 -266 119 -68 3 -89 0 -139 -21z m228 -17 c50
-15 87 -36 144 -82 87 -71 101 -96 101 -195 1 -72 -14 -107 -61 -147 -29 -25
-38 -27 -89 -22 -40 3 -77 16 -121 40 -34 19 -99 47 -143 62 -188 62 -248 144
-176 241 44 60 76 85 133 105 70 24 131 24 212 -2z"/>
<path d="M3070 2400 c0 -5 9 -10 20 -10 11 0 20 5 20 10 0 6 -9 10 -20 10 -11
0 -20 -4 -20 -10z"/>
<path d="M2995 2390 c-3 -5 1 -10 9 -10 8 0 18 5 21 10 3 6 -1 10 -9 10 -8 0
-18 -4 -21 -10z"/>
<path d="M3150 2390 c0 -5 10 -10 23 -10 18 0 19 2 7 10 -19 13 -30 13 -30 0z"/>
<path d="M2925 2349 c-12 -19 5 -23 22 -6 16 16 16 17 1 17 -9 0 -20 -5 -23
-11z"/>
<path d="M3235 2350 c3 -5 11 -10 16 -10 6 0 7 5 4 10 -3 6 -11 10 -16 10 -6
0 -7 -4 -4 -10z"/>
<path d="M3292 2308 c3 -7 13 -15 24 -17 16 -3 17 -1 5 13 -16 19 -34 21 -29
4z"/>
<path d="M2887 2293 c-4 -3 -7 -11 -7 -17 0 -6 5 -5 12 2 6 6 9 14 7 17 -3 3
-9 2 -12 -2z"/>
<path d="M3370 2231 c0 -5 5 -13 10 -16 6 -3 10 -2 10 4 0 5 -4 13 -10 16 -5
3 -10 2 -10 -4z"/>
<path d="M2910 2210 c0 -5 5 -10 11 -10 5 0 7 5 4 10 -3 6 -8 10 -11 10 -2 0
-4 -4 -4 -10z"/>
<path d="M3410 2163 c0 -13 5 -23 10 -23 13 0 13 11 0 30 -8 12 -10 11 -10 -7z"/>
<path d="M2950 2162 c0 -12 19 -26 26 -19 2 2 -2 10 -11 17 -9 8 -15 8 -15 2z"/>
<path d="M3015 2110 c3 -5 13 -10 21 -10 8 0 12 5 9 10 -3 6 -13 10 -21 10 -8
0 -12 -4 -9 -10z"/>
<path d="M3093 2087 c5 -15 37 -22 37 -9 0 5 -9 12 -21 15 -13 3 -19 1 -16 -6z"/>
<path d="M3407 2086 c-4 -10 -5 -21 -2 -24 9 -9 17 6 13 25 -3 17 -4 17 -11
-1z"/>
<path d="M3170 2060 c0 -5 9 -10 21 -10 11 0 17 5 14 10 -3 6 -13 10 -21 10
-8 0 -14 -4 -14 -10z"/>
<path d="M3250 2040 c0 -5 7 -10 15 -10 8 0 15 5 15 10 0 6 -7 10 -15 10 -8 0
-15 -4 -15 -10z"/>
<path d="M3355 2019 c-11 -17 1 -21 15 -4 8 9 8 15 2 15 -6 0 -14 -5 -17 -11z"/>
<path d="M4602 2369 c-107 -18 -205 -89 -246 -178 -52 -115 -9 -290 81 -327
45 -19 89 -7 178 51 39 25 122 70 185 101 165 81 192 113 156 182 -16 30 -97
110 -136 134 -58 35 -142 49 -218 37z m145 -34 c72 -21 164 -92 187 -143 17
-38 17 -43 3 -65 -8 -13 -50 -40 -94 -61 -43 -20 -136 -72 -207 -114 -147 -87
-187 -96 -227 -52 -52 59 -70 157 -45 244 45 152 220 239 383 191z"/>
<path d="M4635 2310 c-3 -5 3 -10 14 -10 12 0 21 5 21 10 0 6 -6 10 -14 10 -8
0 -18 -4 -21 -10z"/>
<path d="M4710 2310 c0 -5 9 -10 21 -10 11 0 17 5 14 10 -3 6 -13 10 -21 10
-8 0 -14 -4 -14 -10z"/>
<path d="M4500 2280 c-8 -5 -11 -12 -7 -16 4 -4 15 0 24 9 18 18 8 23 -17 7z"/>
<path d="M4794 2271 c21 -23 26 -26 26 -11 0 5 -10 15 -22 21 -23 12 -23 12
-4 -10z"/>
<path d="M4441 2226 c-8 -9 -8 -16 -2 -20 6 -4 15 3 21 14 12 23 -2 27 -19 6z"/>
<path d="M4840 2220 c0 -5 5 -10 10 -10 6 0 10 5 10 10 0 6 -4 10 -10 10 -5 0
-10 -4 -10 -10z"/>
<path d="M4400 2148 c0 -19 2 -20 10 -8 13 19 13 30 0 30 -5 0 -10 -10 -10
-22z"/>
<path d="M4850 2150 c0 -5 5 -10 10 -10 6 0 10 5 10 10 0 6 -4 10 -10 10 -5 0
-10 -4 -10 -10z"/>
<path d="M4785 2120 c-3 -5 1 -10 9 -10 8 0 18 5 21 10 3 6 -1 10 -9 10 -8 0
-18 -4 -21 -10z"/>
<path d="M4383 2084 c-3 -8 -1 -20 6 -27 8 -8 11 -4 11 16 0 30 -7 35 -17 11z"/>
<path d="M4712 2093 c-6 -2 -10 -9 -7 -13 7 -11 35 -2 35 11 0 10 -8 10 -28 2z"/>
<path d="M4645 2056 c-11 -8 -14 -15 -8 -19 6 -4 16 0 23 8 17 21 8 28 -15 11z"/>
<path d="M4580 2005 c-8 -9 -8 -15 -2 -15 12 0 26 19 19 26 -2 2 -10 -2 -17
-11z"/>
<path d="M4400 1989 c7 -11 14 -19 16 -16 7 7 -7 37 -17 37 -6 0 -5 -9 1 -21z"/>
<path d="M4523 1963 c-7 -3 -13 -12 -13 -21 0 -15 2 -15 17 1 18 18 16 27 -4
20z"/>
<path d="M4440 1935 c0 -8 9 -15 20 -15 11 0 20 2 20 5 0 2 -9 9 -20 15 -16 9
-20 8 -20 -5z"/>
<path d="M3899 2302 c17 -31 10 -36 -25 -17 -28 14 -53 20 -43 10 3 -2 31 -16
63 -30 l57 -25 -18 31 c-23 39 -53 66 -34 31z"/>
<path d="M5304 2165 c60 -74 87 -139 101 -245 4 -30 11 -62 16 -70 13 -22 1
62 -23 150 -21 83 -58 147 -114 200 -27 25 -21 16 20 -35z"/>
<path d="M3980 2177 c0 -11 50 -107 55 -107 7 0 -21 66 -40 92 -8 13 -15 19
-15 15z"/>
<path d="M3804 2122 c-40 -48 -104 -140 -104 -149 0 -5 115 145 134 175 14 23
1 11 -30 -26z"/>
<path d="M4130 1955 c13 -14 26 -25 28 -25 3 0 -5 11 -18 25 -13 14 -26 25
-28 25 -3 0 5 -11 18 -25z"/>
<path d="M3673 1948 c-20 -26 -26 -41 -15 -34 12 7 36 46 29 46 -3 0 -9 -6
-14 -12z"/>
<path d="M4174 1921 c7 -11 46 -35 46 -28 0 3 -12 12 -26 22 -15 9 -23 12 -20
6z"/>
<path d="M4240 1877 c0 -3 52 -40 115 -84 64 -43 125 -84 135 -92 11 -7 20
-11 20 -8 0 3 -55 44 -122 90 -136 93 -148 100 -148 94z"/>
<path d="M5440 1740 c0 -7 18 -49 40 -93 23 -45 40 -90 38 -102 -2 -13 -20
-29 -51 -44 -46 -23 -48 -23 -89 -6 -23 9 -79 41 -125 70 -45 30 -99 58 -120
64 -45 13 -141 13 -198 2 l-40 -9 49 -1 48 -1 -53 -28 c-51 -26 -71 -47 -159
-164 -24 -33 -26 -42 -20 -80 11 -59 56 -98 113 -98 23 0 49 5 57 10 10 6 -2
8 -36 4 -47 -6 -54 -4 -84 24 -26 22 -34 37 -34 63 1 75 128 212 227 245 75
25 132 15 213 -36 86 -54 183 -100 212 -100 12 0 30 8 40 18 11 9 29 25 40 34
32 26 27 52 -23 152 -25 48 -45 83 -45 76z"/>
<path d="M2624 1639 c-133 -12 -196 -34 -252 -86 -40 -38 -52 -64 -52 -113 0
-72 63 -131 137 -129 22 0 16 4 -26 19 -66 22 -90 51 -91 107 0 40 16 93 29
93 3 0 19 11 35 25 50 43 189 70 326 63 100 -5 175 -35 299 -121 42 -29 84
-57 95 -60 18 -7 18 -8 0 -29 -18 -20 -16 -20 13 2 l33 24 -34 11 c-19 7 -56
31 -82 54 -26 22 -79 57 -118 77 l-71 36 49 -6 c77 -10 48 3 -55 24 -101 21
-111 21 -235 9z"/>
<path d="M3296 1625 c-9 -26 -7 -32 5 -12 6 10 9 21 6 23 -2 3 -7 -2 -11 -11z"/>
<path d="M4605 1566 c3 -11 10 -40 16 -65 5 -25 12 -53 14 -61 7 -21 57 -50
87 -50 18 0 14 5 -19 19 -42 20 -63 45 -63 78 0 10 -9 36 -20 58 -11 22 -18
31 -15 21z"/>
<path d="M2595 1540 c-63 -26 -119 -158 -87 -206 19 -29 94 -47 138 -34 25 7
21 8 -27 9 -67 1 -89 20 -89 75 0 52 27 104 66 129 47 30 46 47 -1 27z"/>
<path d="M2760 1480 c-30 -32 -52 -101 -43 -140 2 -14 17 -34 31 -45 36 -27
168 -27 226 -1 57 26 39 28 -40 6 -84 -24 -127 -25 -159 -4 -49 32 -38 123 22
187 23 23 24 27 9 27 -10 0 -30 -13 -46 -30z"/>
<path d="M5001 1454 c-93 -118 2 -236 154 -193 26 7 24 8 -13 5 -94 -9 -159
37 -148 103 3 18 14 51 24 72 22 45 13 51 -17 13z"/>
<path d="M5188 1450 c-12 -38 -9 -102 5 -130 37 -75 181 -78 254 -5 34 34 44
83 23 115 -7 11 -10 2 -10 -31 0 -34 -6 -51 -22 -66 -38 -34 -84 -53 -132 -53
-70 0 -100 45 -108 160 -3 32 -4 33 -10 10z"/>
</g>
</svg>
